<?xml version="1.0" standalone="no"?>
<!DOCTYPE svg PUBLIC "-//W3C//DTD SVG 20010904//EN"
 "http://www.w3.org/TR/2001/REC-SVG-20010904/DTD/svg10.dtd">
<svg version="1.0" xmlns="http://www.w3.org/2000/svg"
 width="512.000000pt" height="512.000000pt" viewBox="0 0 512.000000 512.000000"
 preserveAspectRatio="xMidYMid meet">

<g transform="translate(0.000000,512.000000) scale(0.100000,-0.100000)"
fill="#000000" stroke="none">
<path d="M1140 5113 c-190 -21 -408 -101 -565 -206 -83 -56 -108 -77 -203
-170 -172 -169 -293 -394 -348 -647 -18 -81 -19 -156 -19 -1530 0 -1374 1
-1449 19 -1530 113 -515 491 -893 1006 -1006 81 -18 156 -19 1530 -19 1374 0
1449 1 1530 19 515 113 893 491 1006 1006 18 81 19 156 19 1530 0 1374 -1
1449 -19 1530 -100 458 -422 823 -851 963 -198 65 -78 61 -1645 62 -784 1
-1441 0 -1460 -2z m2870 -437 c94 -20 215 -69 289 -118 194 -127 339 -342 380
-563 8 -40 11 -490 11 -1439 0 -1137 -3 -1393 -14 -1446 -33 -156 -117 -312
-229 -428 -113 -116 -300 -215 -459 -242 -44 -7 -496 -10 -1468 -8 l-1405 3
-95 33 c-132 46 -239 112 -335 207 -128 126 -205 265 -241 435 -20 97 -20
2803 0 2900 71 333 328 592 661 665 91 20 2811 21 2905 1z"/>
<path d="M3552 3388 c-24 -13 -324 -300 -699 -669 -362 -355 -675 -660 -696
-679 l-38 -33 -237 235 c-130 130 -253 244 -272 254 -56 29 -144 25 -202 -9
-98 -57 -134 -189 -78 -284 14 -23 172 -186 352 -362 312 -305 330 -321 383
-336 79 -23 140 -8 209 53 28 25 388 376 800 781 538 528 754 747 767 776 81
177 -119 365 -289 273z"/>
</g>
</svg>
