<?xml version="1.0" standalone="no"?>
<!DOCTYPE svg PUBLIC "-//W3C//DTD SVG 20010904//EN"
 "http://www.w3.org/TR/2001/REC-SVG-20010904/DTD/svg10.dtd">
<svg version="1.0" xmlns="http://www.w3.org/2000/svg"
 width="512.000000pt" height="512.000000pt" viewBox="0 0 512.000000 512.000000"
 preserveAspectRatio="xMidYMid meet">

<g transform="translate(0.000000,512.000000) scale(0.100000,-0.100000)"
fill="#000000" stroke="none">
<path d="M1140 5113 c-190 -21 -408 -101 -565 -206 -83 -56 -108 -77 -203
-170 -172 -169 -293 -394 -348 -647 -18 -81 -19 -156 -19 -1530 0 -1374 1
-1449 19 -1530 113 -515 491 -893 1006 -1006 81 -18 156 -19 1530 -19 1374 0
1449 1 1530 19 515 113 893 491 1006 1006 18 81 19 156 19 1530 0 1374 -1
1449 -19 1530 -100 458 -422 823 -851 963 -198 65 -78 61 -1645 62 -784 1
-1441 0 -1460 -2z m2870 -437 c94 -20 215 -69 289 -118 194 -127 339 -342 380
-563 8 -40 11 -490 11 -1439 0 -1137 -3 -1393 -14 -1446 -33 -156 -117 -312
-229 -428 -113 -116 -300 -215 -459 -242 -44 -7 -496 -10 -1468 -8 l-1405 3
-95 33 c-132 46 -239 112 -335 207 -128 126 -205 265 -241 435 -20 97 -20
2803 0 2900 71 333 328 592 661 665 91 20 2811 21 2905 1z"/>
<path d="M1824 3820 c-23 -11 -50 -31 -61 -43 -42 -47 -683 -1130 -694 -1173
-8 -32 -8 -56 0 -88 6 -26 147 -272 349 -607 293 -490 344 -568 381 -594 l43
-30 718 0 718 0 43 30 c37 26 88 105 381 593 185 310 343 582 349 605 8 30 8
55 1 88 -7 30 -124 235 -349 610 -294 490 -345 568 -382 594 l-43 30 -706 3
c-695 2 -708 2 -748 -18z m1505 -829 c138 -231 251 -425 251 -431 0 -6 -113
-200 -251 -431 l-252 -419 -517 0 -517 0 -252 419 c-138 231 -251 425 -251
431 0 6 113 200 251 431 l252 419 517 0 517 0 252 -419z"/>
</g>
</svg>
